<?xml version="1.0" standalone="no"?>
<!DOCTYPE svg PUBLIC "-//W3C//DTD SVG 20010904//EN"
 "http://www.w3.org/TR/2001/REC-SVG-20010904/DTD/svg10.dtd">
<svg version="1.0" xmlns="http://www.w3.org/2000/svg"
 width="141.000000pt" height="141.000000pt" viewBox="0 0 141.000000 141.000000"
 preserveAspectRatio="xMidYMid meet">
<metadata>
Created by potrace 1.14, written by Peter Selinger 2001-2017
</metadata>
<g transform="translate(0.000000,141.000000) scale(0.100000,-0.100000)"
fill="#000000" stroke="none">
<path d="M110 1295 l0 -115 165 0 c91 0 165 2 165 5 0 3 -25 55 -55 115 l-55
110 -110 0 -110 0 0 -115z"/>
<path d="M360 1407 c0 -2 72 -145 160 -319 88 -173 160 -319 160 -322 0 -30
-35 24 -109 169 l-86 170 -187 3 -188 2 0 -550 0 -550 595 0 595 0 0 550 0
550 -220 0 -220 0 50 -100 c27 -54 46 -101 41 -104 -5 -3 -20 15 -34 42 -13
26 -72 140 -131 255 -104 200 -109 207 -138 207 l-30 0 46 -86 c47 -88 53
-104 38 -104 -5 0 -31 43 -58 95 -44 85 -52 95 -76 95 -16 0 -28 -3 -28 -7 0
-7 280 -557 367 -720 30 -56 50 -104 44 -107 -11 -7 -46 58 -276 507 -161 314
-169 327 -196 327 -16 0 -29 -2 -29 -5 0 -3 27 -60 61 -126 33 -67 57 -124 54
-127 -10 -11 -39 34 -96 149 -49 100 -56 109 -81 109 -15 0 -28 -1 -28 -3z
m406 -210 c16 -33 15 -35 -12 -75 -16 -23 -32 -41 -35 -42 -3 0 -13 16 -22 36
-17 35 -17 36 10 74 16 22 31 40 36 40 4 0 14 -15 23 -33z m60 -103 c5 -21
-39 -104 -55 -104 -4 0 -15 16 -24 36 -17 35 -17 35 15 80 30 42 33 44 46 27
7 -10 15 -28 18 -39z m-176 -4 l20 -40 -47 0 c-27 0 -53 4 -58 8 -11 8 -45 58
-45 67 0 3 25 5 55 5 54 0 55 -1 75 -40z m217 -75 c16 -33 16 -35 -12 -75 -15
-22 -31 -40 -35 -40 -3 0 -13 14 -22 32 -14 30 -13 34 11 75 14 23 29 43 34
43 4 0 15 -16 24 -35z m-172 -15 c8 -16 15 -31 15 -35 0 -3 -25 -5 -55 -5 -50
0 -56 2 -70 30 -8 16 -15 31 -15 35 0 3 25 5 55 5 50 0 56 -2 70 -30z m221
-84 c16 -33 16 -34 -16 -81 l-32 -47 -19 41 -18 42 27 39 c15 22 30 39 35 40
4 0 15 -15 23 -34z m-166 -8 c11 -18 20 -36 20 -40 0 -5 -24 -8 -54 -8 -51 0
-56 2 -75 34 -12 18 -21 36 -21 40 0 3 25 6 55 6 52 0 57 -2 75 -32z m49 -104
c12 -19 21 -37 21 -40 0 -2 -25 -4 -55 -4 -52 0 -57 2 -75 33 -11 17 -20 35
-20 40 0 4 24 7 54 7 51 0 55 -2 75 -36z m-549 -270 c0 -69 2 -75 18 -69 9 5
28 8 42 9 l25 1 3 -193 2 -193 -32 3 -33 3 -3 148 c-1 84 -7 147 -12 147 -5 0
-11 -63 -12 -147 l-3 -148 -32 -3 -33 -3 0 260 0 261 35 0 35 0 0 -76z m391
-31 l1 -108 15 48 c14 46 15 47 54 47 32 0 39 3 39 20 0 17 7 20 45 20 38 0
45 -3 45 -20 0 -18 7 -20 72 -20 77 0 107 -15 109 -54 1 -19 2 -18 12 5 19 42
37 58 72 65 54 10 75 -2 75 -41 0 -27 -3 -33 -15 -29 -8 4 -22 0 -31 -7 -21
-17 -11 -49 33 -107 59 -77 68 -104 54 -152 -7 -24 -24 -49 -42 -62 -17 -13
-35 -33 -40 -45 -5 -14 -17 -23 -29 -23 -16 0 -19 5 -15 23 5 18 0 24 -25 34
-24 9 -30 17 -30 42 0 34 2 36 32 20 27 -15 68 -3 68 19 0 10 -14 40 -32 68
-17 27 -41 71 -54 99 l-23 50 -3 -150 -3 -150 -40 -1 c-22 0 -52 -4 -68 -8
-49 -14 -57 3 -57 125 l0 109 35 22 c19 13 37 29 40 37 9 24 -16 42 -53 39
l-35 -3 -4 -160 -3 -160 -43 0 -42 0 -3 163 c-2 123 -6 162 -15 159 -6 -2 -18
-24 -25 -50 -11 -41 -10 -60 7 -154 12 -60 17 -111 12 -116 -5 -5 -21 -7 -37
-5 -27 3 -30 7 -41 72 -7 38 -15 71 -18 74 -3 3 -5 -29 -5 -71 l0 -77 -35 0
-35 0 0 260 0 260 40 0 40 0 1 -107z m-126 -38 c23 -22 25 -32 25 -110 l0 -85
-45 0 -46 0 3 -56 c3 -65 23 -88 57 -67 35 22 43 -15 11 -47 -24 -24 -86 -27
-118 -4 -21 15 -22 21 -22 181 0 157 1 168 22 190 30 32 81 31 113 -2z"/>
<path d="M920 240 c0 -40 4 -70 10 -70 6 0 10 30 10 70 0 40 -4 70 -10 70 -6
0 -10 -30 -10 -70z"/>
<path d="M450 376 c0 -31 5 -56 10 -56 6 0 10 22 10 49 0 28 -4 53 -10 56 -6
4 -10 -15 -10 -49z"/>
<path d="M712 1398 c2 -7 27 -59 56 -115 l52 -103 240 0 240 0 0 115 0 115
-296 0 c-231 0 -295 -3 -292 -12z"/>
</g>
</svg>
